# xmcd CD database file
#
# Track frame offsets:
#	150
#	20193
#	37411
#	61772
#	74905
#	87006
#	102766
#	116646
#	140756
#	176495
#	190430
#	216334
#
# Disc length: 3220 seconds
#
# Revision: 0
# Processed by: cddbd v1.5.2PL0 Copyright (c) Steve Scherf et al.
# Submitted via: CDex 1.70beta2
#
DISCID=be0c920c
DTITLE=Larry Coryell - New York Blues
DYEAR=2004
DGENRE=Jazz
TTITLE0=I hear the wind
TTITLE1=All I do is chase the ?
TTITLE2=dig those eyes
TTITLE3=New York Blues
TTITLE4=52nd street shakedown
TTITLE5=study in rhythm
TTITLE6=Like spring blues
TTITLE7=swing me around
TTITLE8=walking with an angel
TTITLE9=Not now bitch
TTITLE10=blues for jack
TTITLE11=come break the mold
EXTD=YEAR: 2004
EXTT0=
EXTT1=
EXTT2=
EXTT3=
EXTT4=
EXTT5=
EXTT6=
EXTT7=
EXTT8=
EXTT9=
EXTT10=
EXTT11=
PLAYORDER=
